<svg xmlns="http://www.w3.org/2000/svg" version="1.1" xmlns:xlink="http://www.w3.org/1999/xlink" xmlns:svgjs="http://svgjs.dev/svgjs" width="128" height="128" viewBox="0 0 128 128"><g transform="matrix(0.6319018404907976,0,0,0.6319018404907976,23.54226251447472,12.33387096774193)"><svg viewBox="0 0 121 155" data-background-color="#000000" preserveAspectRatio="xMidYMid meet" height="163" width="128" xmlns="http://www.w3.org/2000/svg" xmlns:xlink="http://www.w3.org/1999/xlink"><g id="tight-bounds" transform="matrix(1,0,0,1,0.02396514161219443,0.25)"><svg viewBox="0 0 120.9520697167756 154.5" height="154.5" width="120.9520697167756"><g><svg viewBox="0 0 120.9520697167756 154.5" height="154.5" width="120.9520697167756"><g><svg viewBox="0 0 120.9520697167756 154.5" height="154.5" width="120.9520697167756"><g id="textblocktransform"><svg viewBox="0 0 120.9520697167756 154.5" height="154.5" width="120.9520697167756" id="textblock"><g><svg viewBox="0 0 120.9520697167756 154.5" height="154.5" width="120.9520697167756"><g transform="matrix(1,0,0,1,0,0)"><svg width="120.9520697167756" viewBox="1.53 -34.43 26.949999999999996 34.43" height="154.5" data-palette-color="#e11d48"><path d="M20.43-34.43L26.53-34.43 28.48 0 24.3 0 23.23-17.98Q23.15-19.8 23.08-21.68 23-23.55 22.98-25.28 22.95-27 22.95-28.35 22.95-29.7 22.95-30.45L22.95-30.45 17.15-6.18 12.8-6.18 6.58-30.45Q6.6-29.73 6.63-28.31 6.65-26.9 6.66-25.13 6.68-23.35 6.64-21.49 6.6-19.63 6.53-18.03L6.53-18.03 5.6 0 1.53 0 3.48-34.43 9.53-34.43 15.1-10.85 20.43-34.43Z" opacity="1" transform="matrix(1,0,0,1,0,0)" fill="#e11d48" class="wordmark-text-0" data-fill-palette-color="primary" id="text-0"></path></svg></g></svg></g></svg></g></svg></g></svg></g><defs></defs></svg><rect width="120.9520697167756" height="154.5" fill="none" stroke="none" visibility="hidden"></rect></g></svg></g></svg>